<svg width="536" height="431" viewBox="0 0 536 431" fill="none" xmlns="http://www.w3.org/2000/svg">
<rect width="535.687" height="430.434" fill="black" fill-opacity="0"/>
<rect width="37.9991" height="37.8987" fill="black" fill-opacity="0" transform="matrix(0.93832 0.345767 -0.345245 0.938513 244.299 10.2971)"/>
<path d="M249.043 52.4349C258.889 56.0631 269.799 51.0421 273.412 41.2201C277.026 31.3982 271.973 20.4947 262.127 16.8665C252.281 13.2383 241.37 18.2594 237.757 28.0813C234.144 37.9033 239.197 48.8067 249.043 52.4349Z" fill="white"/>
<path fill-rule="evenodd" clip-rule="evenodd" d="M266.063 32.5169C265.356 32.5588 264.84 32.3786 264.393 31.9149C265.246 31.7617 265.385 31.4847 265.925 30.799C265.128 30.939 264.299 30.9488 263.47 30.814C263.089 29.9387 262.354 29.2078 261.378 28.8481C259.502 28.1567 257.433 29.0887 256.756 30.9269C256.66 31.1886 256.596 31.4539 256.564 31.7185C253.792 30.5396 251.778 28.2908 250.844 25.6579C250.37 26.0427 249.992 26.5532 249.767 27.1637C249.342 28.3196 249.567 29.5596 250.259 30.4927C249.708 30.2699 249.24 29.9275 248.874 29.5095C248.868 29.5231 248.863 29.5363 248.857 29.551C248.264 31.1649 248.94 32.9423 250.381 33.8213C249.835 33.7705 249.302 33.5977 248.826 33.313C248.772 34.7954 249.672 36.2207 251.148 36.7954C249.284 37.377 247.31 37.1783 245.612 36.3211C246.768 37.8198 248.35 39.0288 250.269 39.7359C256.517 42.0381 261.799 38.2217 263.418 33.8203C263.471 33.6752 263.521 33.5322 263.567 33.386C264.403 33.1613 265.362 33.0176 266.063 32.5169Z" fill="#4ED5E9"/>
<path d="M116.559 258.728L127.448 274.621C131.557 280.556 139.844 281.783 145.528 277.35C151.418 272.711 151.897 263.912 146.487 258.728C146.487 258.728 134.228 250.27 129.845 247.95C117.724 241.538 109.437 248.291 116.559 258.728Z" fill="#6F5FE8"/>
<path d="M117.929 255.863L128.818 271.756C132.927 277.691 141.214 278.919 146.898 274.485C152.787 269.846 153.267 261.047 147.856 255.863C147.856 255.863 135.598 247.405 131.215 245.085C119.093 238.742 110.807 245.427 117.929 255.863Z" fill="#B6C1FA"/>
<path d="M138.337 271.279C135.392 269.164 134.16 265.344 135.529 261.797L145.117 237.378C146.761 233.217 151.418 231.238 155.527 232.807C159.704 234.444 161.69 239.083 160.115 243.176L150.527 267.595C148.884 271.756 144.227 273.735 140.118 272.166C139.433 271.961 138.817 271.688 138.337 271.279Z" fill="#CDD1D7"/>
<path d="M149.569 249.315L148.473 248.905C141.899 246.245 138.68 238.81 141.282 232.262L145.049 222.848C146.966 218.074 152.377 215.754 157.102 217.664L164.841 220.734C169.634 222.644 171.963 228.033 170.045 232.739L166.279 242.152C163.676 248.769 156.212 251.975 149.569 249.315Z" fill="#4ED5E9"/>
<path d="M147.856 227.009C147.788 227.964 147.925 228.851 148.13 229.738C147.925 228.783 147.856 227.896 147.856 227.009Z" fill="#464982"/>
<path d="M208.739 219.438C208.259 219.097 209.355 215.959 208.876 215.618C200.041 208.66 187.988 187.515 173.195 191.607C169.223 192.699 160.526 194.609 149.911 221.962C149.843 222.166 149.774 222.371 149.706 222.575C149.637 222.712 149.637 222.848 149.569 222.985C149.5 223.326 149.432 223.667 149.363 224.008C149.363 224.008 149.363 224.008 149.363 224.076C149.363 224.281 149.295 224.417 149.295 224.622C149.295 224.758 149.295 224.895 149.295 225.031C149.295 225.099 149.295 225.099 149.295 225.168C149.226 226.054 149.363 226.941 149.569 227.896C150.116 230.215 151.486 232.398 153.541 233.83C154.225 234.308 154.979 234.717 155.801 234.99C161.005 236.968 166.827 234.376 168.813 229.26C169.429 227.691 170.045 226.191 170.593 224.758C171.209 223.258 171.826 221.757 172.442 220.393C175.182 214.731 176.483 214.185 179.359 214.322C185.043 214.595 188.536 229.124 194.905 234.103C195.384 234.513 195.932 234.922 196.411 235.263C200.794 238.673 207.095 237.923 210.519 233.558C213.875 229.192 213.122 222.848 208.739 219.438Z" fill="#00B2CC"/>
<path opacity="0.5" d="M335.296 221.962L137.721 335.534C132.653 338.468 132.653 345.766 137.721 348.699L267.771 423.528C275.168 427.757 284.276 427.757 291.672 423.528L489.248 309.955C494.316 307.022 494.316 299.723 489.248 296.79L359.197 221.962C351.801 217.733 342.693 217.733 335.296 221.962Z" fill="#CED2D7"/>
<path d="M493.426 228.783L484.591 228.919V233.421L359.54 161.526C352.144 157.297 343.035 157.297 335.639 161.526L143.063 272.234V267.05H134.228V280.76C134.16 283.762 135.187 286.626 138.063 288.263L268.114 363.092C275.51 367.321 284.619 367.321 292.015 363.092L489.59 249.519C492.193 248.018 493.494 245.358 493.426 242.698V228.783Z" fill="#2A3646"/>
<path d="M335.639 146.928L138.063 260.501C132.996 263.434 132.996 270.733 138.063 273.666L268.114 348.495C275.51 352.724 284.619 352.724 292.015 348.495L489.59 234.922C494.658 231.989 494.658 224.69 489.59 221.757L359.54 146.928C352.144 142.631 343.035 142.631 335.639 146.928Z" fill="#9FA1A6"/>
<path d="M337.488 155.591L157.444 259.069L294.001 337.581L474.045 234.103L337.488 155.591Z" fill="#FCFBFC"/>
<g filter="url(#filter0_d)">
<path d="M364.539 208.046L382.756 197.542C384.536 196.519 384.536 193.995 382.756 192.971L326.051 160.366C323.654 159.002 320.709 159.002 318.381 160.366L289.07 177.215H302.63L349.404 204.09L356.184 207.978C358.718 209.479 361.937 209.479 364.539 208.046Z" fill="#F9F8FA"/>
</g>
<path d="M321.052 180.284C327.822 180.284 333.31 177.016 333.31 172.985C333.31 168.955 327.822 165.687 321.052 165.687C314.281 165.687 308.793 168.955 308.793 172.985C308.793 177.016 314.281 180.284 321.052 180.284Z" fill="#67C18E"/>
<path d="M322.832 174.827C325.442 174.827 327.558 173.545 327.558 171.962C327.558 170.38 325.442 169.097 322.832 169.097C320.223 169.097 318.107 170.38 318.107 171.962C318.107 173.545 320.223 174.827 322.832 174.827Z" fill="#FCFBFC"/>
<path d="M312.765 172.781C312.081 172.781 311.327 172.849 310.711 172.917V172.985C310.711 176.328 315.162 179.056 320.778 179.124C320.983 178.647 321.12 178.238 321.12 177.692C321.052 175.032 317.354 172.781 312.765 172.781Z" fill="#FCFBFC"/>
<path d="M341.734 182.535C341.392 182.535 341.049 182.603 340.707 182.671C340.775 182.467 340.844 182.33 340.844 182.126C340.844 181.103 339.474 180.352 337.83 180.352C336.187 180.352 334.817 181.171 334.817 182.126V186.15H341.734C343.378 186.15 344.747 185.332 344.747 184.377C344.747 183.285 343.446 182.535 341.734 182.535Z" fill="#67C18E"/>
<path d="M352.143 188.47C351.801 188.47 351.459 188.538 351.116 188.606C351.185 188.401 351.253 188.265 351.253 188.06C351.253 187.037 349.883 186.287 348.24 186.287C346.596 186.287 345.227 187.105 345.227 188.06V192.085H352.143C353.787 192.085 355.157 191.266 355.157 190.311C355.157 189.288 353.856 188.47 352.143 188.47Z" fill="#67C18E"/>
<path d="M375.976 221.28C375.976 221.28 360.841 221.689 365.703 232.944C370.497 244.199 374.332 248.905 392.754 259.478C411.176 270.051 419.737 274.962 419.737 274.962L462.745 250.338L375.976 221.28Z" fill="#CDD1D7"/>
<path d="M490.207 397.062L471.374 392.696C464.32 391.059 457.882 382.874 464.251 371.55C466.1 368.208 471.374 368.276 478.154 371.414L501.438 392.014C501.027 392.696 500.548 399.926 490.207 397.062Z" fill="#323A46"/>
<path d="M490.549 395.015L471.716 390.65C464.662 389.013 460.485 381.714 462.676 374.825C464.936 367.662 472.949 364.047 479.797 367.185C479.797 367.185 492.124 375.507 495.891 378.713C506.163 387.717 502.876 397.88 490.549 395.015Z" fill="#9FA1A6"/>
<path d="M474.524 382.601C470.415 382.601 467.128 379.258 467.128 375.234V352.587C467.128 348.495 470.483 345.22 474.524 345.22C478.633 345.22 481.92 348.563 481.92 352.587V375.165C481.989 379.258 478.633 382.601 474.524 382.601Z" fill="#2A3646"/>
<path d="M473.771 292.084C472.059 302.315 467.813 316.094 456.992 320.596C460.279 333.352 461.991 347.744 461.991 363.638C461.991 370.527 467.607 376.121 474.524 376.121C481.441 376.121 487.057 370.527 487.057 363.638C487.057 336.012 482.605 312.07 473.771 292.084Z" fill="#A49CED"/>
<path d="M473.771 292.083C469.73 282.875 464.731 274.485 458.773 266.981C455.691 263.093 462.197 272.848 458.704 269.505C458.225 273.939 448.911 272.575 436.173 279.191C447.473 290.719 452.267 302.247 456.992 320.596C467.813 316.094 472.059 302.315 473.771 292.083Z" fill="#0097AD"/>
<path d="M473.771 292.083C468.497 290.992 459.595 290.992 456.992 320.596C460.279 333.352 461.991 347.744 461.991 363.638C461.991 370.527 467.607 376.121 474.524 376.121C481.441 376.121 487.057 370.527 487.057 363.638C487.057 336.012 482.605 312.07 473.771 292.083Z" fill="#00B2CC"/>
<path d="M406.794 230.966C394.604 226.873 392.481 220.325 392.07 218.142C392.138 217.664 392.207 217.187 392.275 216.641C392.686 209.752 387.413 203.817 380.496 203.408C374.058 202.999 368.511 207.432 367.21 213.913C365.429 223.121 370.771 245.222 398.781 254.635C412.272 259.137 428.64 272.78 437.885 282.193C450.623 275.576 456.376 268.346 456.855 263.912C440.899 245.358 423.093 236.423 406.794 230.966Z" fill="#00B2CC"/>
<path d="M406.52 156.956C403.095 137.174 351.185 140.244 351.185 170.871C351.185 170.871 366.936 230.079 404.602 228.374C406.931 226.668 408.369 224.895 408.369 223.121C408.369 212.753 409.601 174.691 406.52 156.956Z" fill="#BFECFC"/>
<path d="M419.257 314.457C414.943 314.457 410.765 312.274 408.437 308.318C404.944 302.383 406.862 294.744 412.82 291.197C430.968 280.487 444.733 271.347 453.705 263.98C459.594 259.137 462.471 255.931 463.84 254.021C462.402 253.339 460.074 252.452 456.376 251.361C450.281 249.656 442.61 248.223 434.529 246.654C424.942 244.813 415.08 242.971 405.903 240.311C399.26 238.401 395.425 231.511 397.343 224.826C399.26 218.21 406.177 214.39 412.888 216.3C420.97 218.619 430.283 220.393 439.255 222.098C449.938 224.144 460.074 226.054 468.292 228.851C473.017 230.488 487.399 235.399 489.796 248.974C492.809 266.095 475.414 283.352 425.558 312.683C423.64 313.911 421.449 314.457 419.257 314.457Z" fill="#00B2CC"/>
<path d="M446.925 205.523C445.555 205.523 444.186 205.25 442.885 204.568C440.556 203.408 438.433 202.385 436.379 201.43C408.711 188.06 407.547 187.174 393.439 170.666C391.111 167.938 388.508 164.868 385.221 161.117C381.865 157.297 382.276 151.431 386.111 148.088C389.947 144.746 395.836 145.155 399.192 148.975C402.548 152.795 405.218 155.933 407.547 158.661C419.532 172.644 419.532 172.644 444.46 184.718C446.446 185.673 448.637 186.764 450.966 187.856C455.554 190.107 457.472 195.632 455.212 200.202C453.636 203.613 450.349 205.523 446.925 205.523Z" fill="#BFECFC"/>
<path d="M351.185 170.871C351.185 176.396 353.376 200.475 359.197 229.329C360.91 237.787 374.743 238.196 388.371 234.922C390.221 234.444 404.397 229.26 405.835 228.237C412.204 223.803 406.999 209.138 408.506 208.046C407.136 207.842 384.605 219.642 370.429 181.171C365.772 168.347 351.185 170.871 351.185 170.871Z" fill="#4ED5E9"/>
<path d="M362.416 150.68C362.416 150.68 365.018 139.562 368.032 138.197L370.155 142.836L375.907 146.656L385.495 148.838L394.056 148.634L397.685 146.519C397.959 149.862 398.644 158.934 392.275 160.775C383.509 163.299 375.565 148.02 362.416 150.68Z" fill="#00B2CC"/>
<path d="M467.265 218.142C466.032 218.074 464.731 217.664 463.635 216.846L445.007 203.885C441.72 201.634 440.967 197.132 443.227 193.927C445.487 190.652 450.007 189.902 453.226 192.153L471.853 205.113C475.14 207.364 475.894 211.866 473.634 215.072C472.127 217.255 469.662 218.346 467.265 218.142Z" fill="#C4C4C4"/>
<path d="M407.958 316.844C405.629 316.844 403.369 315.753 401.931 313.775C399.534 310.432 400.288 305.862 403.643 303.475L411.451 297.881C414.806 295.494 419.395 296.244 421.792 299.587C424.189 302.929 423.435 307.499 420.08 309.887L412.272 315.48C410.971 316.435 409.465 316.844 407.958 316.844Z" fill="#2A3646"/>
<rect width="30.7048" height="12.7353" fill="black" fill-opacity="0" transform="translate(366.924 136.911)"/>
<path d="M391.59 149.589C398.37 149.179 399.603 145.974 394.466 142.495C389.33 139.016 379.674 136.492 372.963 136.97C369.607 137.174 367.621 138.061 367.073 139.357C366.525 140.653 367.484 142.29 370.086 144.064C375.154 147.542 384.81 150.066 391.59 149.589Z" fill="#4ED5E9"/>
<rect width="24.2854" height="10.0355" fill="black" fill-opacity="0" transform="translate(370.1 138.296)"/>
<path d="M389.604 148.293C394.946 147.952 395.973 145.428 391.864 142.699C387.824 139.971 380.154 137.993 374.88 138.334C369.539 138.675 368.511 141.199 372.62 143.927C376.661 146.656 384.263 148.634 389.604 148.293Z" fill="#00B2CC"/>
<rect width="21.1084" height="30.1667" fill="black" fill-opacity="0" transform="translate(373.442 118.059)"/>
<path d="M373.442 144.473L380.564 122.986C381.797 119.234 385.837 117.188 389.604 118.416C393.371 119.644 395.425 123.668 394.192 127.42L387.276 148.224C382.276 148.293 376.729 146.246 373.442 144.473Z" fill="#C4C4C4"/>
<path d="M388.166 141.676C398.794 141.676 407.41 133.064 407.41 122.44C407.41 111.817 398.794 103.205 388.166 103.205C377.538 103.205 368.922 111.817 368.922 122.44C368.922 133.064 377.538 141.676 388.166 141.676Z" fill="#CED2D7"/>
<path d="M384.947 122.168C398.575 140.994 418.915 126.806 412.478 115.619C406.999 106.069 401.246 96.588 381.523 100.954C381.523 100.954 379.674 97.4748 377.688 97.8841C377.688 97.8841 377.825 102.454 376.25 103.341C374.88 104.091 358.101 119.848 373.99 135.401C373.99 135.401 370.429 126.601 377.688 126.465C381.934 126.397 384.947 122.168 384.947 122.168Z" fill="#2A3646"/>
<path d="M370.497 126.601C370.908 128.989 373.1 131.581 375.36 132.399C377.62 133.218 379.126 131.99 378.715 129.603C378.304 127.215 376.113 124.623 373.853 123.805C371.593 122.986 370.086 124.214 370.497 126.601Z" fill="#C4C4C4"/>
<path d="M439.186 247.609L421.928 233.489C421.928 233.489 422.545 228.715 419.6 224.826C410.149 212.48 404.123 214.39 427.407 219.369L438.844 222.03C438.844 222.03 440.214 246.654 457.472 251.634L439.186 247.609Z" fill="#0097AD"/>
<path d="M474.319 213.503V213.776C474.182 213.64 473.976 213.571 473.839 213.503L443.158 205.522C442.063 205.25 440.83 205.522 440.008 206.341L426.722 219.779V219.711L425.558 219.983L426.037 221.689C426.174 222.234 426.654 222.712 427.27 222.917L457.609 230.829C458.636 231.102 459.8 230.829 460.553 230.011L474.524 215.891C474.866 215.55 475.003 215.072 474.935 214.595V214.526C474.935 214.458 474.935 214.458 474.935 214.39L474.456 212.753L474.319 213.503Z" fill="#EAF0F8"/>
<path d="M473.36 211.866L442.679 203.886C441.583 203.613 440.351 203.886 439.529 204.704L425.969 218.346C425.49 218.824 425.353 219.438 425.558 219.984C425.695 220.529 426.175 221.007 426.791 221.211L456.992 229.056C458.157 229.329 459.321 228.988 460.143 228.169L474.045 214.186C474.798 213.435 474.456 212.139 473.36 211.866Z" fill="white"/>
<path d="M473.767 212.712L458.426 227.991L429.389 220.42L444.73 205.14L473.767 212.712Z" fill="#B6C1FA"/>
<path d="M436.721 211.116C436.858 211.525 436.31 211.934 435.625 212.139C434.872 212.344 434.256 212.207 434.119 211.798C433.982 211.389 434.529 210.98 435.214 210.775C435.968 210.57 436.652 210.775 436.721 211.116Z" fill="#CED2D7"/>
<path d="M401.315 228.851C398.507 228.851 395.836 227.214 394.672 224.485C393.165 220.87 394.877 216.641 398.507 215.14L423.435 204.704C427.133 203.203 431.311 204.909 432.817 208.524C434.324 212.139 432.612 216.368 428.982 217.869L404.054 228.305C403.164 228.646 402.205 228.851 401.315 228.851Z" fill="#C4C4C4"/>
<path d="M393.713 230.011C387.07 230.011 381.044 228.373 375.633 225.168C357.691 214.322 353.308 189.015 351.596 170.871C351.116 165.755 354.883 161.253 359.951 160.775C365.087 160.298 369.607 164.05 370.086 169.097C372.141 190.925 377.277 204.499 385.29 209.274C390.631 212.48 398.233 212.139 407.958 208.183C412.683 206.273 418.093 208.524 420.079 213.299C421.997 218.005 419.737 223.394 414.943 225.372C407.341 228.442 400.219 230.011 393.713 230.011Z" fill="#BFECFC"/>
<path d="M457.403 212.753L453.157 202.999L457.129 201.293L461.375 211.048C461.855 212.139 461.375 213.435 460.28 213.913C459.115 214.322 457.814 213.844 457.403 212.753Z" fill="#C4C4C4"/>
<path d="M410.697 336.967L397.137 326.326C390.7 323.052 383.509 313.297 387.276 307.158C391.179 300.746 400.767 297.268 406.657 301.974L422.134 319.368C426.996 330.76 421.86 342.697 410.697 336.967Z" fill="#9FA1A6"/>
<path d="M410.355 337.513L392.617 328.372C386.111 325.03 383.988 308.932 383.988 308.932C384.879 308.113 390.768 300.542 399.534 308.181L415.148 320.732C425.147 328.781 421.791 343.379 410.355 337.513Z" fill="#323A46"/>
<path d="M408.095 339.832L390.357 330.691C383.851 327.349 380.701 320.869 382.345 312.07C383.372 306.408 391.316 305.726 397.274 310.501L412.889 323.052C422.819 331.033 419.463 345.63 408.095 339.832Z" fill="#323A46"/>
<path d="M530.001 120.231L446.999 72.4828C444.054 70.7775 440.287 72.8921 440.287 76.3027V120.027V146.152L453.779 132.714L528.974 175.96C531.919 177.666 535.685 175.551 535.685 172.14V130.054C535.754 126.029 533.562 122.278 530.001 120.231Z" fill="#B6C1FA"/>
<path d="M455.628 115.115L483.432 131.145C484.665 131.827 485.418 133.191 485.418 134.556C485.418 135.511 484.391 136.056 483.569 135.579L455.765 119.549C454.532 118.867 453.779 117.503 453.779 116.138C453.779 115.252 454.806 114.638 455.628 115.115Z" fill="#FCFBFC"/>
<path d="M455.628 103.383L502.265 130.19C503.498 130.872 504.251 132.236 504.251 133.601C504.251 134.556 503.224 135.101 502.402 134.624L455.765 107.817C454.532 107.134 453.779 105.77 453.779 104.406C453.779 103.519 454.806 102.905 455.628 103.383Z" fill="#FCFBFC"/>
<path d="M452.957 92.1961C452.957 91.2412 453.984 90.6955 454.806 91.1729L507.607 121.527C508.84 122.209 509.593 123.574 509.593 124.938C509.593 125.893 508.566 126.439 507.744 125.961L455.012 95.6067C453.779 94.9246 452.957 93.6286 452.957 92.1961Z" fill="#FCFBFC"/>
<path opacity="0.5" d="M37.2551 213.435L1.36961 234.035C-0.410965 235.058 -0.410965 237.65 1.36961 238.673L37.3236 259.342C40.0629 260.911 43.4871 260.911 46.295 259.342L82.1804 238.742C83.961 237.719 83.961 235.126 82.1804 234.103L46.2265 213.435C43.4871 211.798 40.0629 211.798 37.2551 213.435Z" fill="#CED2D7"/>
<path d="M37.2551 192.289L1.36961 212.958C-0.410965 213.981 -0.410965 216.573 1.36961 217.596L37.3236 238.264C40.0629 239.833 43.4871 239.833 46.295 238.264L82.1804 217.596C83.961 216.573 83.961 213.981 82.1804 212.958L46.2265 192.289C43.4871 190.72 40.0629 190.72 37.2551 192.289Z" fill="#CED2D7"/>
<path opacity="0.5" d="M47.5983 329.2L22.1224 343.866C20.8212 344.616 20.8212 346.458 22.1224 347.14L47.5983 361.806C49.5844 362.965 51.9813 362.965 53.9673 361.806L79.4433 347.14C80.7445 346.39 80.7445 344.548 79.4433 343.866L53.9673 329.2C51.9813 328.041 49.5159 328.041 47.5983 329.2Z" fill="#CED2D7"/>
<path d="M47.5983 310.051L22.1224 324.717C20.8212 325.467 20.8212 327.309 22.1224 327.991L47.5983 342.657C49.5844 343.816 51.9813 343.816 53.9673 342.657L79.4433 327.991C80.7445 327.241 80.7445 325.399 79.4433 324.717L53.9673 310.051C51.9813 308.96 49.5159 308.96 47.5983 310.051Z" fill="#67C18E"/>
<path d="M230.653 383.76L195.11 404.224C193.33 405.247 193.33 407.771 195.11 408.794L230.653 429.258C233.393 430.826 236.748 430.826 239.488 429.258L275.031 408.794C276.811 407.771 276.811 405.247 275.031 404.224L239.488 383.76C236.748 382.123 233.393 382.123 230.653 383.76Z" fill="#9FA1A6"/>
<path d="M230.653 316.162L195.11 336.626C193.33 337.649 193.33 340.173 195.11 341.196L230.653 361.66C233.393 363.228 236.748 363.228 239.488 361.66L275.031 341.196C276.811 340.173 276.811 337.649 275.031 336.626L239.488 316.162C236.748 314.593 233.393 314.593 230.653 316.162Z" fill="#B6C1FA"/>
<path d="M402.203 400.181L379.831 413.229C378.723 413.901 378.723 415.525 379.831 416.197L402.203 429.244C403.92 430.252 406.08 430.252 407.796 429.244L430.169 416.197C431.277 415.525 431.277 413.901 430.169 413.229L407.796 400.181C406.08 399.173 403.92 399.173 402.203 400.181Z" fill="#EDF0F5"/>
<path d="M402.204 383.756L379.831 396.803C378.723 397.475 378.723 399.099 379.831 399.771L402.204 412.819C403.92 413.827 406.08 413.827 407.797 412.819L430.169 399.771C431.277 399.099 431.277 397.475 430.169 396.803L407.797 383.756C406.08 382.748 403.92 382.748 402.204 383.756Z" fill="#67C18E"/>
<path d="M351.869 76.5755L324.75 114.024L299 97.4483L326.12 60L351.869 76.5755Z" fill="#CDF4D7"/>
<path d="M299 97.4483L325.983 89.8086L326.12 60L299 97.4483Z" fill="#67C18E"/>
<path d="M209.697 46.1113L166.689 28.8536L176.757 0L219.764 17.3258L209.697 46.1113Z" fill="#4ED5E9"/>
<path d="M176.757 0L190.659 24.2834L219.764 17.3258L176.757 0Z" fill="#00B2CC"/>
<path d="M37.8718 102.932L120.874 55.1835C123.819 53.4782 127.586 55.5928 127.586 59.0034V102.727V128.921L114.094 115.483L38.8305 158.729C35.8857 160.435 32.1191 158.32 32.1191 154.909V112.823C32.1876 108.73 34.3106 104.978 37.8718 102.932Z" fill="#6F5FE8"/>
<path d="M71.5658 121.213L43.7614 137.242C42.5287 137.925 41.7754 139.289 41.7754 140.653C41.7754 141.608 42.8026 142.154 43.6245 141.676L71.4289 125.646C72.6616 124.964 73.4149 123.6 73.4149 122.236C73.4149 121.349 72.3876 120.735 71.5658 121.213Z" fill="#FCFBFC"/>
<path d="M90.3989 98.6345L43.7614 125.442C42.5287 126.124 41.7754 127.488 41.7754 128.852C41.7754 129.807 42.8026 130.353 43.6245 129.876L90.2619 103.068C91.4946 102.386 92.2479 101.022 92.2479 99.6577C92.1794 98.771 91.1522 98.1571 90.3989 98.6345Z" fill="#FCFBFC"/>
<path d="M98.3426 84.3781C98.3426 83.4232 97.3153 82.8775 96.4935 83.3549L43.6926 113.709C42.4599 114.391 41.7065 115.756 41.7065 117.12C41.7065 118.075 42.7338 118.621 43.5556 118.143L96.3566 87.7887C97.5893 87.1066 98.3426 85.8106 98.3426 84.3781Z" fill="#FCFBFC"/>
<g filter="url(#filter1_d)">
<path d="M327.147 258.728L361.663 238.878C363.443 237.855 363.443 235.331 361.663 234.308L279.551 187.105C277.154 185.741 274.209 185.741 271.881 187.105L226.271 213.299H239.83L286.605 240.174L318.792 258.66C321.326 260.229 324.545 260.229 327.147 258.728Z" fill="#F9F8FA"/>
</g>
<path d="M282.77 210.775L278.866 213.026L334.817 245.154L338.653 242.971L282.77 210.775Z" fill="#CED2D7"/>
<path d="M289.549 206.887L285.714 209.138L341.597 241.266L345.432 239.015L289.549 206.887Z" fill="#CED2D7"/>
<path d="M275.99 214.731L272.086 216.914L327.969 249.11L331.872 246.859L275.99 214.731Z" fill="#CED2D7"/>
<path d="M296.329 202.999L292.494 205.25L348.377 237.377L352.281 235.126L296.329 202.999Z" fill="#CED2D7"/>
<path d="M269.21 218.619L265.306 220.87L280.783 229.738L284.687 227.555L269.21 218.619Z" fill="#CED2D7"/>
<path d="M274.552 207.023C281.322 207.023 286.81 203.755 286.81 199.724C286.81 195.694 281.322 192.426 274.552 192.426C267.781 192.426 262.293 195.694 262.293 199.724C262.293 203.755 267.781 207.023 274.552 207.023Z" fill="#67C18E"/>
<path d="M276.332 201.566C278.942 201.566 281.057 200.284 281.057 198.701C281.057 197.119 278.942 195.836 276.332 195.836C273.722 195.836 271.606 197.119 271.606 198.701C271.606 200.284 273.722 201.566 276.332 201.566Z" fill="#FCFBFC"/>
<path d="M266.265 199.52C265.58 199.52 264.827 199.588 264.21 199.656V199.725C264.21 203.067 268.662 205.795 274.278 205.864C274.483 205.386 274.62 204.977 274.62 204.431C274.551 201.771 270.853 199.52 266.265 199.52Z" fill="#FCFBFC"/>
<g filter="url(#filter2_d)">
<path d="M317.491 306.817L349.61 288.332C351.39 287.308 351.39 284.785 349.61 283.761L267.498 236.559C265.101 235.195 262.156 235.195 259.828 236.559L237.639 249.383C235.858 250.406 235.858 252.93 237.639 253.953L317.491 299.859V306.817Z" fill="#F9F8FA"/>
</g>
<path d="M263.046 241.266L259.143 243.517L314.477 275.303L318.381 273.121L263.046 241.266Z" fill="#CED2D7"/>
<path d="M256.198 245.154L252.363 247.405L307.697 279.26L311.533 277.009L256.198 245.154Z" fill="#CED2D7"/>
<path d="M249.418 249.11L245.514 251.293L275.852 268.755L279.688 266.504L249.418 249.11Z" fill="#CED2D7"/>
<path d="M324.681 294.403C331.452 294.403 336.94 291.135 336.94 287.104C336.94 283.073 331.452 279.805 324.681 279.805C317.911 279.805 312.423 283.073 312.423 287.104C312.423 291.135 317.911 294.403 324.681 294.403Z" fill="#4ED5E9"/>
<path d="M326.462 289.014C329.072 289.014 331.188 287.731 331.188 286.149C331.188 284.567 329.072 283.284 326.462 283.284C323.852 283.284 321.737 284.567 321.737 286.149C321.737 287.731 323.852 289.014 326.462 289.014Z" fill="#FCFBFC"/>
<path d="M316.395 286.968C315.71 286.968 314.957 287.036 314.34 287.104V287.172C314.34 290.515 318.792 293.243 324.407 293.311C324.613 292.834 324.75 292.424 324.75 291.879C324.681 289.15 320.983 286.968 316.395 286.968Z" fill="#FCFBFC"/>
<path d="M78.4823 287.036L95.6033 296.04C101.972 299.45 109.916 296.654 112.861 290.037C115.943 283.148 112.245 275.167 104.986 273.121C104.986 273.121 90.1931 271.279 85.2622 271.279C71.497 271.279 67.3195 281.101 78.4823 287.036Z" fill="#6F5FE8"/>
<path d="M78.3454 283.83L95.4663 292.834C101.835 296.244 109.779 293.448 112.724 286.831C115.806 279.942 112.108 271.961 104.849 269.914C104.849 269.914 90.0561 268.073 85.1253 268.073C71.36 268.141 67.1825 277.963 78.3454 283.83Z" fill="#B6C1FA"/>
<path d="M97.6579 286.899C94.7131 284.785 93.4804 280.965 94.8501 277.418L104.438 252.998C106.081 248.837 110.738 246.859 114.847 248.428C119.025 250.065 121.011 254.703 119.436 258.796L109.848 283.216C108.204 287.377 103.548 289.355 99.4385 287.786C98.8221 287.581 98.2058 287.24 97.6579 286.899Z" fill="#CDD1D7"/>
<path d="M108.958 264.935L107.862 264.526C101.287 261.865 98.0687 254.43 100.671 247.882L104.438 238.469C106.355 233.694 111.765 231.375 116.491 233.285L124.229 236.354C129.023 238.264 131.352 243.653 129.434 248.359L125.668 257.773C123.065 264.321 115.601 267.527 108.958 264.935Z" fill="#4ED5E9"/>
<path d="M107.246 242.63C107.177 243.585 107.314 244.471 107.52 245.358C107.314 244.403 107.177 243.448 107.246 242.63Z" fill="#464982"/>
<path d="M170.799 227.964C170.319 227.623 169.84 227.214 169.36 226.805C160.526 219.847 146.008 204.977 131.215 209.07C127.243 210.161 118.546 212.071 107.931 239.424C107.862 239.628 107.794 239.833 107.725 240.038L130.462 237.719V237.787C133.201 232.125 136.557 230.283 139.365 230.352C145.049 230.624 150.527 237.514 156.896 242.493C157.376 242.903 157.924 243.312 158.403 243.653C162.786 247.064 169.087 246.313 172.511 241.948C175.935 237.719 175.113 231.375 170.799 227.964Z" fill="#00B2CC"/>
<path d="M107.52 245.358C108.067 247.678 109.437 249.86 111.492 251.293C112.176 251.77 112.93 252.18 113.752 252.452C118.956 254.431 124.777 251.838 126.763 246.723C127.38 245.154 127.996 243.653 128.544 242.221V242.289C120.531 241.948 113.272 242.63 107.52 245.358Z" fill="#00B2CC"/>
<path d="M107.656 240.106C107.588 240.242 107.588 240.379 107.52 240.515C107.451 240.856 107.383 241.197 107.314 241.538C107.314 241.538 107.314 241.538 107.314 241.607C107.314 241.811 107.246 241.948 107.246 242.152C107.246 242.289 107.246 242.425 107.246 242.562C107.246 242.63 107.246 242.63 107.246 242.698C107.177 243.585 107.314 244.472 107.52 245.426C113.272 242.698 120.531 242.016 128.544 242.289V242.221C129.16 240.72 129.777 239.219 130.393 237.855V237.787L107.656 240.106Z" fill="#464982"/>
<path d="M107.656 240.106C107.588 240.242 107.588 240.379 107.52 240.515C107.451 240.856 107.383 241.197 107.314 241.538C107.314 241.538 107.314 241.538 107.314 241.607C107.314 241.811 107.246 241.948 107.246 242.152C107.246 242.289 107.246 242.425 107.246 242.562C107.246 242.63 107.246 242.63 107.246 242.698C107.177 243.585 107.314 244.472 107.52 245.426C113.272 242.698 120.531 242.016 128.544 242.289V242.221C129.16 240.72 129.777 239.219 130.393 237.855V237.787L107.656 240.106Z" fill="#00B2CC"/>
<path d="M152.445 252.248C152.445 252.248 176.003 273.53 205.177 270.324C235.447 267.05 247.226 243.858 232.982 237.378C220.86 231.852 200.178 224.758 200.178 224.758L152.445 252.248Z" fill="#CED2D7"/>
<path d="M112.176 202.726L161.964 174.145C163.745 173.122 166.004 173.122 167.785 174.145L198.945 192.085C200.589 193.04 200.589 195.427 198.945 196.382L150.322 224.349C147.719 225.85 144.432 225.85 141.83 224.349L112.176 207.296C110.396 206.205 110.396 203.681 112.176 202.726Z" fill="#9FA1A6"/>
<path d="M112.176 200.407L161.964 171.826C163.745 170.803 166.004 170.803 167.785 171.826L198.945 189.766C200.589 190.721 200.589 193.108 198.945 194.063L150.322 222.03C147.719 223.53 144.432 223.53 141.83 222.03L112.176 204.977C110.396 203.885 110.396 201.43 112.176 200.407Z" fill="#EDF0F5"/>
<path d="M101.561 159.479L152.513 130.148C153.815 129.398 155.458 130.148 155.801 131.581L164.019 166.778C164.498 168.756 163.608 170.803 161.827 171.826L110.875 201.157C109.574 201.907 107.93 201.157 107.588 199.725L99.37 164.527C98.8906 162.549 99.7809 160.503 101.561 159.479Z" fill="#9FA1A6"/>
<path d="M103.205 161.662L152.719 133.15L161.211 169.438L111.697 197.883L103.205 161.662Z" fill="white"/>
<rect width="67.6619" height="38.949" fill="black" fill-opacity="0" transform="translate(115.327 173.736)"/>
<path d="M152.992 205.25L161.416 210.093C162.375 210.638 163.539 210.638 164.429 210.093L177.099 202.794C177.852 202.385 177.852 201.293 177.099 200.884L168.675 196.041C167.716 195.495 166.552 195.495 165.662 196.041L152.992 203.34C152.239 203.749 152.239 204.84 152.992 205.25Z" fill="#9FA1A6"/>
<path d="M176.209 183.354L179.085 184.991L182.989 182.74L180.112 181.103L176.209 183.354Z" fill="#9FA1A6"/>
<path d="M171.415 186.082L174.291 187.719L178.195 185.468L175.318 183.831L171.415 186.082Z" fill="#9FA1A6"/>
<path d="M147.993 199.588L150.87 201.225L173.401 188.265L170.525 186.628L147.993 199.588Z" fill="#9FA1A6"/>
<path d="M142.652 202.658L145.528 204.295L149.432 202.044L146.555 200.407L142.652 202.658Z" fill="#9FA1A6"/>
<path d="M137.858 205.386L140.734 207.023L144.638 204.772L141.761 203.135L137.858 205.386Z" fill="#9FA1A6"/>
<path d="M133.064 208.183L135.94 209.82L139.844 207.569L136.968 205.932L133.064 208.183Z" fill="#9FA1A6"/>
<path d="M128.133 211.048L130.941 212.685L135.05 210.297L132.174 208.66L128.133 211.048Z" fill="#9FA1A6"/>
<path d="M171.963 180.898L174.839 182.535L178.743 180.284L175.866 178.647L171.963 180.898Z" fill="#9FA1A6"/>
<path d="M167.169 183.627L170.045 185.264L173.949 183.081L171.072 181.444L167.169 183.627Z" fill="#9FA1A6"/>
<path d="M162.375 186.423L165.251 188.06L169.155 185.809L166.279 184.172L162.375 186.423Z" fill="#9FA1A6"/>
<path d="M157.581 189.152L160.458 190.789L164.361 188.538L161.485 186.901L157.581 189.152Z" fill="#9FA1A6"/>
<path d="M152.787 191.948L155.663 193.585L159.567 191.335L156.691 189.697L152.787 191.948Z" fill="#9FA1A6"/>
<path d="M147.993 194.677L150.87 196.314L154.773 194.063L151.897 192.426L147.993 194.677Z" fill="#9FA1A6"/>
<path d="M143.199 197.474L146.076 199.111L149.979 196.86L147.103 195.223L143.199 197.474Z" fill="#9FA1A6"/>
<path d="M138.406 200.202L141.282 201.839L145.186 199.588L142.309 197.951L138.406 200.202Z" fill="#9FA1A6"/>
<path d="M133.612 202.931L136.488 204.568L140.392 202.317L137.515 200.68L133.612 202.931Z" fill="#9FA1A6"/>
<path d="M128.818 205.727L131.694 207.364L135.598 205.113L132.721 203.476L128.818 205.727Z" fill="#9FA1A6"/>
<path d="M123.819 208.592L126.695 210.229L130.804 207.842L127.928 206.205L123.819 208.592Z" fill="#9FA1A6"/>
<path d="M167.717 178.442L170.593 180.08L174.497 177.829L171.62 176.191L167.717 178.442Z" fill="#9FA1A6"/>
<path d="M162.923 181.239L165.799 182.876L169.703 180.625L166.826 178.988L162.923 181.239Z" fill="#9FA1A6"/>
<path d="M158.129 183.968L161.005 185.605L164.909 183.354L162.032 181.717L158.129 183.968Z" fill="#9FA1A6"/>
<path d="M153.335 186.696L156.212 188.333L160.115 186.15L157.239 184.513L153.335 186.696Z" fill="#9FA1A6"/>
<path d="M148.541 189.493L151.418 191.13L155.321 188.879L152.445 187.242L148.541 189.493Z" fill="#9FA1A6"/>
<path d="M143.747 192.221L146.624 193.858L150.527 191.607L147.651 189.97L143.747 192.221Z" fill="#9FA1A6"/>
<path d="M138.954 195.018L141.83 196.655L145.734 194.404L142.857 192.767L138.954 195.018Z" fill="#9FA1A6"/>
<path d="M134.16 197.746L137.036 199.384L140.94 197.133L138.063 195.495L134.16 197.746Z" fill="#9FA1A6"/>
<path d="M129.366 200.543L132.242 202.18L136.146 199.929L133.269 198.292L129.366 200.543Z" fill="#9FA1A6"/>
<path d="M124.572 203.272L127.448 204.909L131.352 202.658L128.476 201.021L124.572 203.272Z" fill="#9FA1A6"/>
<path d="M119.573 206.137L122.449 207.774L126.558 205.386L123.682 203.749L119.573 206.137Z" fill="#9FA1A6"/>
<path d="M163.471 175.987L166.279 177.624L170.251 175.373L167.374 173.736L163.471 175.987Z" fill="#9FA1A6"/>
<path d="M158.677 178.783L161.485 180.421L165.457 178.17L162.58 176.532L158.677 178.783Z" fill="#9FA1A6"/>
<path d="M153.883 181.512L156.691 183.149L160.663 180.898L157.786 179.261L153.883 181.512Z" fill="#9FA1A6"/>
<path d="M149.089 184.309L151.965 185.946L155.869 183.695L152.993 182.058L149.089 184.309Z" fill="#9FA1A6"/>
<path d="M144.295 187.037L147.171 188.674L151.075 186.423L148.199 184.786L144.295 187.037Z" fill="#9FA1A6"/>
<path d="M139.501 189.766L142.378 191.403L146.281 189.152L143.405 187.515L139.501 189.766Z" fill="#9FA1A6"/>
<path d="M134.708 192.562L137.584 194.199L141.487 191.948L138.611 190.311L134.708 192.562Z" fill="#9FA1A6"/>
<path d="M129.914 195.291L132.79 196.928L136.693 194.677L133.817 193.04L129.914 195.291Z" fill="#9FA1A6"/>
<path d="M125.12 198.087L127.996 199.725L131.9 197.474L129.023 195.836L125.12 198.087Z" fill="#9FA1A6"/>
<path d="M120.326 200.816L123.202 202.453L127.106 200.202L124.229 198.565L120.326 200.816Z" fill="#9FA1A6"/>
<path d="M115.327 203.681L118.203 205.318L122.312 202.999L119.436 201.362L115.327 203.681Z" fill="#9FA1A6"/>
<rect width="33.831" height="44.747" fill="black" fill-opacity="0" transform="translate(115.532 143.586)"/>
<path d="M147.651 174.964L123.613 188.333L115.532 161.048L139.57 147.747L147.651 174.964Z" fill="#D4DFFF"/>
<path d="M149.363 170.871L125.325 184.172L117.244 156.956L141.282 143.586L149.363 170.871Z" fill="white"/>
<path d="M142.035 145.973L117.997 159.343L117.244 156.956L141.282 143.586L142.035 145.973Z" fill="#D4DFFF"/>
<path d="M142.515 162.413C142.378 162.14 141.83 162.003 141.488 162.14L125.394 170.803C124.915 171.075 124.709 171.485 124.915 171.962C125.051 172.235 125.599 172.371 125.942 172.235L142.035 163.572C142.515 163.299 142.72 162.89 142.515 162.413Z" fill="#6F5FE8"/>
<path d="M143.405 165.414C143.268 165.141 142.72 165.005 142.378 165.141L126.284 173.804C125.805 174.077 125.599 174.486 125.805 174.964C125.942 175.236 126.49 175.373 126.832 175.236L142.926 166.573C143.405 166.301 143.61 165.823 143.405 165.414Z" fill="#6F5FE8"/>
<path d="M144.295 168.347C144.158 168.074 143.611 167.938 143.268 168.074L127.174 176.737C126.695 177.01 126.49 177.419 126.695 177.897C126.832 178.17 127.38 178.306 127.722 178.17L143.816 169.507C144.295 169.234 144.501 168.824 144.295 168.347Z" fill="#6F5FE8"/>
<path d="M136.077 160.98C134.982 163.709 132.311 165.141 130.119 164.254C127.996 163.368 127.106 160.434 128.27 157.774C129.366 155.046 132.037 153.613 134.228 154.5C136.351 155.319 137.173 158.252 136.077 160.98Z" fill="#6F5FE8"/>
<path d="M198.329 265.481C207.574 265.14 232.091 256.545 240.378 235.877C250.514 210.434 259.143 124.555 215.587 133.15C205.657 135.128 194.494 142.017 191.412 153.204C186.002 173.258 184.701 176.123 191.138 187.515C204.561 211.252 196.137 213.708 170.045 219.438C140.049 226.123 157.992 267.05 198.329 265.481Z" fill="#67C18E"/>
<path d="M212.437 141.949C209.629 141.403 207.437 139.084 207.232 136.083L205.657 113.982C205.383 110.435 208.054 107.366 211.615 107.093C215.176 106.82 218.258 109.48 218.532 113.027L220.107 135.128C220.381 138.675 217.71 141.744 214.149 142.017C213.532 142.085 212.985 142.017 212.437 141.949Z" fill="#C4C4C4"/>
<path d="M212.094 128.375C222.722 128.375 231.338 119.763 231.338 109.139C231.338 98.5155 222.722 89.9033 212.094 89.9033C201.466 89.9033 192.85 98.5155 192.85 109.139C192.85 119.763 201.466 128.375 212.094 128.375Z" fill="#CED2D7"/>
<path d="M193.193 101.09C194.973 105.251 203.191 106.138 208.259 105.592C213.738 105.046 216.409 105.115 219.696 105.524C227.983 106.615 228.051 118.621 232.913 118.075C235.721 117.802 237.502 112.754 237.981 110.026C239.693 101.226 233.53 91.4722 225.38 86.8338C223.531 85.8106 214.697 81.104 205.383 84.992C197.85 88.1298 191.207 96.3834 193.193 101.09Z" fill="#7B1AB5"/>
<path d="M209.834 83.3549C222.161 80.7629 233.667 89.4258 238.392 97.543C243.391 106.001 237.159 109.412 242.022 116.028C247.98 124.146 250.308 124.214 253.253 132.536C256.677 142.29 249.555 144.541 255.444 154.841C260.307 163.368 264.005 162.14 266.607 169.37C269.484 177.419 265.991 189.083 257.773 193.995C245.994 201.02 229.421 191.198 224.421 180.625C221.066 173.531 223.805 166.164 221.271 158.252C219.011 151.089 218.6 149.52 208.875 143.381C201.479 138.675 215.518 124.009 209.766 118.143C204.766 113.027 189.905 107.161 191.481 100.544C193.741 91.2675 201.89 84.992 209.834 83.3549Z" fill="#2A3646"/>
<path d="M193.741 163.709C195.384 171.28 200.657 174.554 205.657 175.168C210.588 175.782 215.381 168.893 213.806 161.389C212.163 153.818 206.889 147.201 199.836 147.883C194.768 148.293 192.097 156.205 193.741 163.709Z" fill="#479C6C"/>
<path d="M153.883 221.962C161.485 226.395 176.414 237.65 185.591 237.036C194.699 236.423 210.382 234.717 214.08 213.162C217.778 191.607 209.012 166.505 209.012 166.505L201.137 208.797L183.057 220.666L164.361 216.232L153.883 221.962Z" fill="#479C6C"/>
<path d="M176.551 224.554C187.166 224.554 197.781 220.665 203.945 213.435C208.533 208.046 211.409 201.225 212.094 192.085C212.71 183.558 211.615 172.985 208.67 159.889C207.917 156.41 204.492 154.227 201 154.977C197.507 155.728 195.316 159.138 196.069 162.617C200.931 184.513 201.137 191.062 198.26 199.315C196 205.795 178.4 218.892 164.019 208.115C163.95 208.046 161.485 205.727 160.457 203.135C159.362 200.475 159.499 198.838 159.019 195.768C158.745 193.995 155.8 193.79 155.869 196.382C155.937 198.633 156.211 200.816 156.211 200.816C156.211 200.816 155.047 200.134 151.281 196.109C146.007 190.516 136.283 198.156 144.775 206.682C146.213 208.114 146.829 209.001 152.239 215.072C157.65 221.211 165.936 224.554 176.551 224.554Z" fill="#CED2D7"/>
<path d="M392.275 183.149L391.59 183.012C394.33 167.392 390.221 159.616 390.152 159.548L390.769 159.207C390.906 159.548 395.083 167.256 392.275 183.149Z" fill="#00B2CC"/>
<path d="M400.836 190.789C400.836 190.721 398.165 181.921 397.411 174.691C396.658 167.529 393.782 159.138 393.713 159.07L394.33 158.866C394.33 158.934 397.275 167.392 398.028 174.623C398.781 181.785 401.384 190.516 401.384 190.584L400.836 190.789Z" fill="#00B2CC"/>
<path d="M402.068 190.652C402.068 190.175 401.657 189.766 401.178 189.766C400.698 189.766 400.287 190.175 400.287 190.652C400.287 191.13 400.698 191.539 401.178 191.539C401.657 191.607 402.068 191.198 402.068 190.652Z" fill="#00B2CC"/>
<path d="M392.891 183.081C392.891 182.535 392.48 182.126 391.932 182.126C391.385 182.126 390.974 182.535 390.974 183.081C390.974 183.626 391.385 184.036 391.932 184.036C392.412 184.036 392.891 183.626 392.891 183.081Z" fill="#00B2CC"/>
<path fill-rule="evenodd" clip-rule="evenodd" d="M48.611 322.297L53.2825 322.297C53.3659 322.299 53.4482 322.303 53.529 322.31C55.7019 322.365 57.847 322.875 59.5065 323.841C63.0271 325.889 63.0271 329.209 59.5065 331.257C55.9859 333.305 50.2796 333.305 46.759 331.257C45.0693 330.274 44.1905 328.998 44.1228 327.71C44.1226 327.708 44.1224 327.706 44.1222 327.704L44.1222 327.699C44.1179 327.611 44.1173 327.523 44.1206 327.435L44.1055 324.918L39.4341 324.918C38.2661 324.899 37.3318 324.316 37.3318 323.618C37.3318 322.919 38.2995 322.336 39.4508 322.307L44.1055 322.307L44.1055 322.297L44.1227 322.297L44.1227 319.648C44.0726 318.958 45.1071 318.357 46.3585 318.347C47.5265 318.347 48.5443 318.861 48.5943 319.512L48.611 322.297ZM48.611 327.558L48.611 324.918L53.1494 324.918C53.1494 324.918 54.9348 324.87 56.353 325.695C57.7713 326.52 58.4887 328.18 56.353 329.422C54.2173 330.665 51.3641 330.247 49.9459 329.422C48.5276 328.597 48.611 327.558 48.611 327.558Z" fill="white"/>
<rect width="33.0899" height="32.9809" fill="black" fill-opacity="0" transform="translate(234.506 321.197) scale(1.22451 0.707515) rotate(45)"/>
<path d="M220.274 345.974C228.186 350.546 240.993 350.558 248.878 346.002C256.764 341.445 256.743 334.046 248.831 329.474C240.919 324.903 228.113 324.891 220.227 329.447C212.341 334.003 212.363 341.403 220.274 345.974Z" fill="white"/>
<path fill-rule="evenodd" clip-rule="evenodd" d="M237.939 337.259L239.164 336.551C239.74 336.218 240.248 336.356 240.51 336.507L242.386 337.591L244.921 336.127L242.211 334.551C239.746 333.127 237.388 333.949 236.179 334.648L234.799 335.444L232.916 334.356L230.343 335.842L232.227 336.931L225.797 340.646L228.937 342.46L235.367 338.745L237.785 340.142L240.619 338.807L237.939 337.259Z" fill="#6F5FE8"/>
<path d="M415.815 393.112C420.339 395.766 421.736 399.249 418.935 400.892C417.16 401.934 414.123 401.985 410.984 401.207C410.541 402.025 410.366 403.108 409.929 404.345C408.797 402.97 406.785 401.102 406.449 399.49L405.675 399.061C401.152 396.408 399.755 392.925 402.555 391.282C405.355 389.639 411.292 390.459 415.815 393.112ZM405.675 401.349C403.306 402.739 398.591 402.227 395.145 400.205L394.683 399.92C392.24 399.865 389.302 399.523 387.345 398.375C388.712 398.108 390.611 398.153 392.421 397.78C391.495 396.336 391.696 394.907 393.195 394.028C394.693 393.149 397.129 393.03 399.588 393.573C399.609 395.261 401.227 397.324 404.152 399.04L404.925 399.469C405.046 400.046 405.381 400.656 405.814 401.264L405.675 401.349Z" fill="white"/>
<path d="M55.1562 208.665C61.1263 212.115 62.9701 216.643 59.2742 218.778C56.9305 220.133 52.9218 220.2 48.7798 219.188C48.1951 220.252 47.964 221.66 47.3867 223.268C45.8934 221.48 43.238 219.052 42.7936 216.956L41.7726 216.399C35.8025 212.949 33.9588 208.421 37.6546 206.285C41.3504 204.149 49.1861 205.215 55.1562 208.665ZM41.7726 219.373C38.6454 221.18 32.423 220.515 27.8743 217.886L27.2644 217.515C24.0405 217.443 20.1619 216.999 17.5792 215.506C19.3836 215.159 21.8906 215.217 24.2794 214.733C23.0566 212.856 23.3225 210.997 25.3005 209.854C27.2777 208.712 30.4923 208.558 33.7389 209.264C33.766 211.458 35.9011 214.14 39.762 216.371L40.783 216.929C40.942 217.679 41.3846 218.472 41.9557 219.262L41.7726 219.373Z" fill="white"/>
<path fill-rule="evenodd" clip-rule="evenodd" d="M221.93 411.924L234.594 419.243L238.866 416.775C239.72 416.281 237.271 411.904 234.803 408.503L238.22 406.528C238.22 406.528 240.489 407.148 244.162 405.026C245.323 405.696 249.25 404.016 247.633 403.082C247.993 402.873 251.147 402.53 252.686 401.065C255.267 398.608 246.915 393.781 242.662 395.273C239.88 392.816 238.048 396.974 237.556 397.259C235.885 396.293 232.978 398.562 234.139 399.233C230.465 401.356 231.538 402.667 231.538 402.667L228.121 404.642C222.236 403.215 214.661 401.8 213.807 402.294L209.536 404.762L221.93 411.924Z" fill="white"/>
<path d="M395.814 49.8135C401.786 53.7825 409.845 52.1586 413.814 46.1865C417.783 40.2143 416.159 32.1555 410.187 28.1865C404.214 24.2175 396.156 25.8414 392.187 31.8135C388.218 37.7857 389.841 45.8445 395.814 49.8135Z" fill="white"/>
<path fill-rule="evenodd" clip-rule="evenodd" d="M399.714 43.0523L404.451 46.2001L405.499 44.6231C405.708 44.3077 404.463 42.1158 403.32 40.447L404.159 39.1854C404.159 39.1854 404.93 39.3799 405.831 38.0237C406.266 38.3123 407.295 37.1773 406.69 36.7754C406.778 36.6423 407.717 36.2684 408.03 35.3927C408.556 33.9236 405.432 31.8475 404.281 32.9014C403.147 31.7562 403.042 34.0891 402.921 34.2708C402.296 33.8556 401.648 35.2438 402.083 35.5324C401.181 36.8886 401.659 37.5246 401.659 37.5246L400.821 38.7861C398.84 38.3789 396.337 38.0794 396.127 38.3948L395.079 39.9718L399.714 43.0523Z" fill="#6F5FE8"/>
<path d="M453.193 215.708C453.205 213.456 450.517 211.616 447.188 211.597C443.86 211.579 441.152 213.39 441.14 215.641C441.128 217.893 443.816 219.733 447.145 219.752C450.473 219.77 453.181 217.959 453.193 215.708Z" fill="#6F5FE8"/>
<defs>
<filter id="filter0_d" x="269.07" y="139.343" width="135.021" height="89.7693" filterUnits="userSpaceOnUse" color-interpolation-filters="sRGB">
<feFlood flood-opacity="0" result="BackgroundImageFix"/>
<feColorMatrix in="SourceAlpha" type="matrix" values="0 0 0 0 0 0 0 0 0 0 0 0 0 0 0 0 0 0 255 0"/>
<feOffset/>
<feGaussianBlur stdDeviation="10"/>
<feColorMatrix type="matrix" values="0 0 0 0 0.780392 0 0 0 0 0.780392 0 0 0 0 0.780392 0 0 0 0.7 0"/>
<feBlend mode="normal" in2="BackgroundImageFix" result="effect1_dropShadow"/>
<feBlend mode="normal" in="SourceGraphic" in2="effect1_dropShadow" result="shape"/>
</filter>
<filter id="filter1_d" x="206.271" y="166.082" width="176.728" height="113.763" filterUnits="userSpaceOnUse" color-interpolation-filters="sRGB">
<feFlood flood-opacity="0" result="BackgroundImageFix"/>
<feColorMatrix in="SourceAlpha" type="matrix" values="0 0 0 0 0 0 0 0 0 0 0 0 0 0 0 0 0 0 255 0"/>
<feOffset/>
<feGaussianBlur stdDeviation="10"/>
<feColorMatrix type="matrix" values="0 0 0 0 0.780392 0 0 0 0 0.780392 0 0 0 0 0.780392 0 0 0 0.7 0"/>
<feBlend mode="normal" in2="BackgroundImageFix" result="effect1_dropShadow"/>
<feBlend mode="normal" in="SourceGraphic" in2="effect1_dropShadow" result="shape"/>
</filter>
<filter id="filter2_d" x="216.303" y="215.536" width="154.642" height="111.281" filterUnits="userSpaceOnUse" color-interpolation-filters="sRGB">
<feFlood flood-opacity="0" result="BackgroundImageFix"/>
<feColorMatrix in="SourceAlpha" type="matrix" values="0 0 0 0 0 0 0 0 0 0 0 0 0 0 0 0 0 0 255 0"/>
<feOffset/>
<feGaussianBlur stdDeviation="10"/>
<feColorMatrix type="matrix" values="0 0 0 0 0.780392 0 0 0 0 0.780392 0 0 0 0 0.780392 0 0 0 0.7 0"/>
<feBlend mode="normal" in2="BackgroundImageFix" result="effect1_dropShadow"/>
<feBlend mode="normal" in="SourceGraphic" in2="effect1_dropShadow" result="shape"/>
</filter>
</defs>
</svg>
